<svg width="20" height="22" viewBox="0 0 20 22" fill="none" xmlns="http://www.w3.org/2000/svg">
<path d="M16.7031 8.20703V13.793C16.7031 16.0273 17.4479 17.5169 18.9375 18.2617H1.0625C2.55208 17.5169 3.29688 16.0273 3.29688 13.793V8.20703C3.29687 6.42925 4.0031 4.72429 5.26018 3.46721C6.51726 2.21013 8.22222 1.50391 10 1.50391V1.50391C11.7778 1.50391 13.4827 2.21013 14.7398 3.46721C15.9969 4.72429 16.7031 6.42925 16.7031 8.20703V8.20703Z" stroke="#10498B" stroke-width="1.5" stroke-linecap="round" stroke-linejoin="round"></path>
<path d="M7.76562 18.2617C7.76562 18.8543 8.00103 19.4226 8.42006 19.8417C8.83908 20.2607 9.40741 20.4961 10 20.4961C10.5926 20.4961 11.1609 20.2607 11.5799 19.8417C11.999 19.4226 12.2344 18.8543 12.2344 18.2617" stroke="#10498B" stroke-width="1.5" stroke-linecap="round" stroke-linejoin="round"></path>
</svg>