<svg width="24" height="24" viewBox="0 0 24 24" fill="none" xmlns="http://www.w3.org/2000/svg">
<path d="M15.4398 6.91177V4.99177C15.4398 4.48256 15.2375 3.9942 14.8774 3.63413C14.5173 3.27406 14.029 3.07178 13.5198 3.07178H9.67977C9.17055 3.07178 8.68219 3.27406 8.32212 3.63413C7.96205 3.9942 7.75977 4.48256 7.75977 4.99177V6.91177" stroke="#CFD3E9" stroke-width="1.5" stroke-linecap="round" stroke-linejoin="round"></path>
<path d="M19.28 6.91187H3.92C2.85961 6.91187 2 7.77148 2 8.83186V18.4318C2 19.4922 2.85961 20.3518 3.92 20.3518H19.28C20.3404 20.3518 21.2 19.4922 21.2 18.4318V8.83186C21.2 7.77148 20.3404 6.91187 19.28 6.91187Z" stroke="#CFD3E9" stroke-width="1.5" stroke-linecap="round" stroke-linejoin="round"></path>
<path d="M2.02734 10.6968L5.33031 12.1884C5.84771 12.4221 6.40893 12.543 6.97665 12.543H16.3425C16.9011 12.543 17.4535 12.426 17.9641 12.1995L21.3526 10.6968" stroke="#CFD3E9" stroke-width="1.5"></path>
</svg>