<svg width="458" height="458" viewBox="0 0 458 458" fill="none" xmlns="http://www.w3.org/2000/svg">
<path d="M458 250.054C458 339.943 384.87 413.073 294.988 413.073C260.216 413.073 227.025 402.274 199.022 381.843L206.715 371.302C232.471 390.087 262.999 400.027 294.995 400.027C377.685 400.027 444.954 332.758 444.954 250.061C444.954 167.37 377.685 100.102 294.995 100.102C212.304 100.102 145.036 167.37 145.036 250.061H131.983C131.983 162.368 201.606 90.6554 288.468 87.2204V57.9799H257.017V44.9341H332.98V57.9871H301.521V87.2132C388.377 90.6482 458 162.361 458 250.054ZM265.311 298.881L353.547 210.651L344.323 201.427L260.695 285.041L233.938 258.291L224.713 267.515L256.086 298.881C257.36 300.155 259.028 300.792 260.702 300.792C262.362 300.792 264.037 300.155 265.311 298.881ZM157.724 268.381H0V281.434H157.724V268.381ZM97.2391 356.231H195.122V343.178H97.2391V356.231ZM52.3623 305.779V318.832H180.166V305.779H52.3623Z" fill="#30A8FF"></path>
</svg>