<svg width="168" height="168" viewBox="0 0 168 168" fill="none" xmlns="http://www.w3.org/2000/svg">
<g clip-path="url(#clip0_323_59)">
<path d="M84 168C130.392 168 168 130.392 168 84C168 37.6081 130.392 0 84 0C37.6081 0 0 37.6081 0 84C0 130.392 37.6081 168 84 168Z" fill="#1B9BAA"></path>
<path opacity="0.1" d="M167.601 92.1936L105.875 30.4674H84V168C127.628 168 163.482 134.74 167.601 92.1936Z" fill="black"></path>
<path d="M114.755 118.185C90.329 118.185 95.7785 106.207 94.1211 94.2126H73.8781C72.2211 106.207 77.6706 118.185 53.2443 118.185C37.6341 118.185 32.3076 125.026 32.3076 140.074V150.213C46.5617 161.357 64.5042 168 83.9998 168C103.495 168 121.438 161.357 135.692 150.213V140.074C135.692 125.025 130.365 118.185 114.755 118.185Z" fill="#FFD0AE"></path>
<path opacity="0.1" d="M94.5384 101.169C94.4855 99.1135 94.4147 96.9918 94.1213 94.8688H73.8783C73.5863 96.9816 73.5151 99.0941 73.4619 101.141C76.3908 103.018 79.8731 104.146 84.0223 104.146C88.1508 104.146 91.619 103.029 94.5384 101.169Z" fill="black"></path>
<path d="M114.755 118.185C111.568 118.185 108.894 117.98 106.642 117.599L83.9999 120.066L61.3573 117.598C59.1054 117.979 56.4315 118.185 53.2448 118.185C37.6346 118.185 32.3081 125.026 32.3081 140.074V150.213C46.5619 161.357 64.5044 168 83.9999 168C103.495 168 121.438 161.357 135.692 150.213V140.074C135.692 125.026 130.366 118.185 114.755 118.185Z" fill="#EFF0F0"></path>
<path d="M94.374 120.216H73.626L80.8106 129.659L78.8884 167.851C80.5255 167.946 82.1736 168 83.8346 168C85.6075 168 87.3652 167.938 89.1108 167.83L87.1897 129.659L94.374 120.216Z" fill="#5567C5"></path>
<path d="M114.755 118.185C111.568 118.185 108.894 117.98 106.642 117.599L84.0221 162.641L61.3568 117.599C59.1049 117.98 56.431 118.185 53.2443 118.185C37.6341 118.185 32.3076 125.026 32.3076 140.074V150.213C46.5617 161.357 64.5042 168 83.9998 168C103.495 168 121.438 161.357 135.692 150.213V140.074C135.692 125.025 130.365 118.185 114.755 118.185Z" fill="#314B5A"></path>
<path opacity="0.2" d="M80.8105 129.659H87.1893C87.1893 129.659 85.57 130.24 83.9999 130.24C82.4295 130.24 80.8105 129.659 80.8105 129.659Z" fill="black"></path>
<path d="M72.6728 108.997H71.1171L61.2783 117.487L71.838 132.436L83.9997 120.066L72.6728 108.997Z" fill="#EFF0F0"></path>
<path d="M95.3607 108.997H96.8825L106.721 117.487L96.1616 132.436L84 120.066L95.3607 108.997Z" fill="#EFF0F0"></path>
<path d="M59.4521 78.6545C61.9527 78.6545 63.9799 76.2645 63.9799 73.3163C63.9799 70.368 61.9527 67.978 59.4521 67.978C56.9515 67.978 54.9243 70.368 54.9243 73.3163C54.9243 76.2645 56.9515 78.6545 59.4521 78.6545Z" fill="#FFD0AE"></path>
<path d="M108.593 78.6545C111.093 78.6545 113.121 76.2645 113.121 73.3163C113.121 70.368 111.093 67.978 108.593 67.978C106.092 67.978 104.065 70.368 104.065 73.3163C104.065 76.2645 106.092 78.6545 108.593 78.6545Z" fill="#FFD0AE"></path>
<path d="M88.5248 35.0008H79.5194C67.6777 35.0008 58.0781 48.8887 58.0781 60.7307C58.0781 60.7307 58.7711 102.327 84.0223 102.327C109.273 102.327 109.966 60.7307 109.966 60.7307C109.966 48.8887 100.367 35.0008 88.5248 35.0008Z" fill="#FFD0AE"></path>
<path d="M110.838 68.6808C114.66 62.9419 119.084 27.5477 97.5322 28.4606C78.5082 12.1666 44.2555 33.8957 57.2076 68.6808L59.6547 70.2214C59.6547 70.2214 59.3358 66.2074 61.0962 62.2693C62.8566 58.3311 67.6039 54.8871 68.9361 46.5294C70.2683 38.1718 93.9858 53.4319 97.5322 43.0323C100.129 54.6702 107.407 56.9464 108.428 62.2689C109.449 67.5918 108.39 70.2211 108.39 70.2211L110.838 68.6808Z" fill="#414042"></path>
<path opacity="0.1" d="M108.428 62.2693C107.406 56.9464 100.129 54.6702 97.5318 43.0326C93.9851 53.4322 70.2676 38.1721 68.9357 46.5298C67.6038 54.8874 62.8562 58.3315 61.0958 62.2696C59.3357 66.2074 59.6543 70.2217 59.6543 70.2217C59.7452 68.6845 60.0776 66.5169 61.0958 64.2384C62.8562 60.3005 67.6035 56.8562 68.9357 48.4985C70.2679 40.1409 93.9854 55.401 97.5318 45.0014C100.129 56.6393 107.406 58.9155 108.428 64.238C108.67 65.5046 108.793 66.6133 108.843 67.5757C108.917 66.2836 108.859 64.5202 108.428 62.2693Z" fill="black"></path>
<path opacity="0.1" d="M71.8382 133.746L83.9998 121.045L96.1614 133.746L107.701 117.759L107.693 117.757C107.334 117.708 106.982 117.655 106.642 117.598L96.1617 132.436L83.9998 120.066L71.8382 132.436L61.3572 117.598C61.0179 117.656 60.6655 117.708 60.3065 117.757L60.2983 117.759L71.8382 133.746Z" fill="black"></path>
<path d="M68.3951 111.346L53.2446 118.185L66.1117 129.659L59.7678 133.746L84.0224 162.641L68.3951 111.346Z" fill="#314B5A"></path>
<path d="M99.6494 111.346L114.8 118.185L101.933 129.659L108.277 133.746L84.0225 162.641L99.6494 111.346Z" fill="#314B5A"></path>
<path opacity="0.1" d="M114.81 118.185L101.905 129.66L102.76 130.21L116.014 118.202C115.619 118.193 115.22 118.185 114.81 118.185Z" fill="black"></path>
<path opacity="0.1" d="M53.1245 118.185L66.029 129.66L65.1745 130.21L51.9199 118.202C52.3156 118.193 52.7143 118.185 53.1245 118.185Z" fill="black"></path>
<path opacity="0.1" d="M107.562 134.598L84.0223 162.641L60.4829 134.598L59.7676 135.059L84.0223 164.039L108.277 135.059L107.562 134.598Z" fill="black"></path>
</g>
<defs>
<clipPath id="clip0_323_59">
<rect width="168" height="168" fill="white"></rect>
</clipPath>
</defs>
</svg>